# xmcd CD database file
#
# Track frame offsets:
#	150
#	44512
#	55203
#	92299
#	126445
#	171784
#	204469
#	220201
#	276494
#
# Disc length: 3694 seconds
#
# Revision: 0
# Processed by: cddbd v1.5.2PL0 Copyright (c) Steve Scherf et al.
# Submitted via: CDex 1.70beta2
#
DISCID=860e6c09
DTITLE=Deva Premal - The Essence
DYEAR=2000
DGENRE=New Age
TTITLE0=Gayatri Mantra
TTITLE1=Om Asatoma
TTITLE2=Tumare Darshan
TTITLE3=Om Namo
TTITLE4=Shima Shima
TTITLE5=Sammasati
TTITLE6=Yemaya Assessu
TTITLE7=Gayatri Mantra (bonus version)
TTITLE8=Comp. Data
EXTD=YEAR: 2000
EXTT0=
EXTT1=
EXTT2=
EXTT3=
EXTT4=
EXTT5=
EXTT6=
EXTT7=
EXTT8=
PLAYORDER=
